<svg xmlns="http://www.w3.org/2000/svg" viewBox="0 0 295.12 295.12"><defs><style>.cls-1{fill:blue;}.cls-2{fill:#7373f9;}.cls-2,.cls-3,.cls-4,.cls-5{isolation:isolate;}.cls-3{fill:#dedeff;}.cls-4,.cls-6{fill:#b6b6ff;}.cls-5,.cls-7{fill:#01017a;}.cls-8{fill:#fff;}</style></defs><g id="Layer_2" data-name="Layer 2"><g id="about_artwork" data-name="about artwork"><rect class="cls-1" width="295.12" height="295.12"/><ellipse class="cls-2" cx="203.55" cy="143.13" rx="10.9" ry="17.49"/><ellipse class="cls-3" cx="91.73" cy="143.13" rx="10.9" ry="17.49"/><path class="cls-4" d="M198.75,116.33v46.73a79,79,0,0,1-.4,7.9c-3.08,29.7-23.27,52.9-48.15,54.44-.87,0-1.75.08-2.64.08s-1.76,0-2.63-.08C120,223.86,99.85,200.66,96.77,171a79,79,0,0,1-.4-7.9V116.33c0-34.48,22.92-62.42,51.19-62.42,14.14,0,26.93,7,36.2,18.28S198.75,99.09,198.75,116.33Z"/><path class="cls-5" d="M192.18,193.67c-8.37,18.11-24,30.61-42,31.73h-5.27c-18-1.12-33.62-13.62-42-31.73C98,183.06,106,171,117.7,171h59.72C189.11,171,197.09,183.06,192.18,193.67Z"/><path class="cls-6" d="M121.82,171c0,17.34,11.52,31.39,25.74,31.39S173.3,188.29,173.3,171Z"/><rect class="cls-5" x="119.94" y="170.96" width="57.68" height="5.95"/><polygon class="cls-7" points="189.54 115.95 155.59 101.95 155.59 114.11 189.54 123.11 189.54 115.95"/><polygon class="cls-7" points="104.8 115.95 138.74 101.95 138.74 114.11 104.8 123.11 104.8 115.95"/><path class="cls-8" d="M147.56,186.65c14.22,0,25.74-3.9,25.74-8.7H121.82C121.82,182.75,133.34,186.65,147.56,186.65Z"/><rect class="cls-7" x="136.66" y="157.39" width="21.8" height="5.61"/><polygon class="cls-7" points="157.8 125.5 157.8 119.9 171.45 123.11 171.45 127 157.8 125.5"/><polygon class="cls-7" points="137.32 125.5 137.32 119.9 123.67 123.11 123.67 127 137.32 125.5"/><rect class="cls-5" x="141.91" y="190.14" width="11.31" height="16.07"/><polygon class="cls-8" points="121.81 222.45 121.81 254.47 147.56 238.46 121.81 222.45"/><polygon class="cls-8" points="173.31 222.45 173.31 254.47 147.56 238.46 173.31 222.45"/></g></g></svg>