<svg xmlns="http://www.w3.org/2000/svg" viewBox="0 0 419.28 384.12"><defs><style>.cls-1{fill:#f0f;}.cls-2{fill:blue;}</style></defs><g id="Layer_2" data-name="Layer 2"><g id="artwork_dark_bg" data-name="artwork dark bg"><path class="cls-1" d="M72.77,181.49h52a0,0,0,0,1,0,0v34.58a10.64,10.64,0,0,1-10.64,10.64H72.77a0,0,0,0,1,0,0V181.49A0,0,0,0,1,72.77,181.49Z"/><rect class="cls-1" x="82.37" y="226.71" width="24.9" height="31.41"/><rect y="257.85" width="179.07" height="126.28"/><rect class="cls-2" x="27" y="257.85" width="125.07" height="77.71"/><rect class="cls-2" x="179.07" y="257.85" width="156.55" height="56.65"/><rect class="cls-2" x="247.43" y="170.77" width="88.18" height="143.73"/><path class="cls-1" d="M274.69,143.51h98.58a0,0,0,0,1,0,0v0A27.26,27.26,0,0,1,346,170.77H247.43a0,0,0,0,1,0,0v0A27.26,27.26,0,0,1,274.69,143.51Z"/><path d="M77.72,167.51H89.53a0,0,0,0,1,0,0v75.68A62.54,62.54,0,0,1,27,305.73h0a0,0,0,0,1,0,0V218.24A50.73,50.73,0,0,1,77.72,167.51Z"/><path d="M86.59,167.51H124a10.58,10.58,0,0,1,10.58,10.58v0A10.58,10.58,0,0,1,124,188.67H86.59a0,0,0,0,1,0,0V167.51A0,0,0,0,1,86.59,167.51Z"/><rect x="218.14" y="132.34" width="201.14" height="11.17"/><rect class="cls-2" x="262.3" y="60.44" width="48.05" height="48.05"/><polygon class="cls-1" points="286.32 24.03 262.3 48.05 310.35 48.05 310.35 0 286.32 24.03"/><circle class="cls-1" cx="347.61" cy="84.47" r="24.03"/><rect x="331.38" y="6.91" width="33.35" height="33.35" transform="translate(118.62 -239.21) rotate(45)"/><circle class="cls-2" cx="272.12" cy="9.83" r="9.83"/><circle class="cls-1" cx="348.06" cy="23.58" r="6.32"/></g></g></svg>