<svg xmlns="http://www.w3.org/2000/svg" viewBox="0 0 412.27 330.94"><defs><style>.cls-1{fill:#f0f;}.cls-2{fill:blue;}.cls-3,.cls-4{fill:none;stroke-miterlimit:10;stroke-width:2.97px;}.cls-3{stroke:#f0f;}.cls-4{stroke:blue;}</style></defs><g id="Layer_2" data-name="Layer 2"><g id="artwork_dark_bg" data-name="artwork dark bg"><path d="M360.88,76.62h47.54a0,0,0,0,1,0,0V89.18A15.85,15.85,0,0,1,392.57,105H345a0,0,0,0,1,0,0V92.48A15.85,15.85,0,0,1,360.88,76.62Z"/><path class="cls-1" d="M190.59,0h24.84a17.05,17.05,0,0,1,17.05,17.05V70a0,0,0,0,1,0,0h-41.9a0,0,0,0,1,0,0V0A0,0,0,0,1,190.59,0Z"/><path class="cls-2" d="M148.69,0h41.9a0,0,0,0,1,0,0V53A17.05,17.05,0,0,1,173.53,70H148.69a0,0,0,0,1,0,0V0A0,0,0,0,1,148.69,0Z" transform="translate(339.28 70.02) rotate(180)"/><rect class="cls-1" x="284.09" y="30.72" width="47.56" height="91.82"/><rect class="cls-1" x="216.51" y="30.72" width="115.14" height="40.98"/><path class="cls-1" d="M371.28,122.53h0a41,41,0,0,1,41,41v79a0,0,0,0,1,0,0h0a41,41,0,0,1-41-41v-79A0,0,0,0,1,371.28,122.53Z"/><circle class="cls-2" cx="136.9" cy="105.03" r="13.38"/><circle class="cls-1" cx="358.4" cy="105.03" r="13.38"/><rect class="cls-2" x="45.25" y="122.53" width="105.03" height="66.66"/><rect class="cls-2" x="45.25" y="70.02" width="52.51" height="68.31"/><path class="cls-2" d="M86.23,30.72h100.7a0,0,0,0,1,0,0v41a0,0,0,0,1,0,0H45.25a0,0,0,0,1,0,0v0A41,41,0,0,1,86.23,30.72Z"/><rect x="164.66" y="11.27" width="51.85" height="82.49" rx="9.19"/><rect x="45.25" y="189.2" width="52.51" height="132.49"/><rect x="118.87" y="153.61" width="52.51" height="123.68" transform="translate(-70.33 360.58) rotate(-90)"/><polygon points="0 330.94 97.76 330.94 97.76 306.5 45.25 306.5 0 330.94"/><rect class="cls-2" x="318.77" y="189.2" width="52.51" height="124.56"/><polygon class="cls-2" points="273.52 330.94 371.28 330.94 371.28 306.5 318.77 306.5 273.52 330.94"/><rect x="194.75" y="143.95" width="24.44" height="97.76"/><circle class="cls-3" cx="188.29" cy="52.51" r="8.35"/><path class="cls-4" d="M203.78,48.31,184.25,37a4.85,4.85,0,0,0-7.28,4.2V63.79a4.86,4.86,0,0,0,7.28,4.2l19.53-11.28A4.85,4.85,0,0,0,203.78,48.31Z"/><rect class="cls-2" x="219.19" y="143.95" width="26.59" height="97.76"/><rect class="cls-2" x="235.31" y="189.2" width="100.57" height="52.51"/><rect x="284.09" y="122.53" width="87.19" height="66.66"/></g></g></svg>