<svg xmlns="http://www.w3.org/2000/svg" viewBox="0 0 2013.8 815.33"><defs><style>.cls-1{fill:blue;}.cls-2{fill:#fff;}.cls-3{fill:#f0f;}</style></defs><g id="Layer_2" data-name="Layer 2"><g id="Layer_1-2" data-name="Layer 1"><path class="cls-1" d="M1022.18,333.2h450.34a0,0,0,0,1,0,0V650.8a146.3,146.3,0,0,1-146.3,146.3h-304a0,0,0,0,1,0,0V333.2a0,0,0,0,1,0,0Z" transform="translate(2494.69 1130.29) rotate(180)"/><polygon class="cls-1" points="1673.17 488.16 1911.88 488.16 2013.8 797.09 1775.08 797.09 1673.17 488.16"/><rect class="cls-1" x="1252.41" y="333.2" width="420.76" height="154.96"/><circle class="cls-2" cx="1331.48" cy="187.71" r="103.95"/><path class="cls-2" d="M1673.17,333.2h102.55a135.93,135.93,0,0,1,135.93,135.93v19a0,0,0,0,1,0,0H1673.17a0,0,0,0,1,0,0v-155A0,0,0,0,1,1673.17,333.2Z"/><polygon class="cls-3" points="1911.88 488.16 1673.17 488.16 1571.25 797.09 1809.96 797.09 1911.88 488.16"/><rect x="1189.56" y="333.2" width="62.84" height="463.9"/><rect x="1409.67" y="333.2" width="62.84" height="463.9"/><rect x="1189.56" y="551.46" width="282.95" height="245.64"/><path class="cls-1" d="M1317.26,38.05H1516a0,0,0,0,1,0,0v0a130.6,130.6,0,0,1-130.6,130.6H1213a0,0,0,0,1,0,0V142.29A104.23,104.23,0,0,1,1317.26,38.05Z"/><path class="cls-1" d="M1213,168.66h29.11a67.66,67.66,0,0,1,67.66,67.66v0a0,0,0,0,1,0,0H1213a0,0,0,0,1,0,0V168.66A0,0,0,0,1,1213,168.66Z" transform="translate(2522.82 404.97) rotate(180)"/><path class="cls-1" d="M0,351.44H450.34a0,0,0,0,1,0,0V669A146.3,146.3,0,0,1,304,815.33H0a0,0,0,0,1,0,0V351.44A0,0,0,0,1,0,351.44Z" transform="translate(450.34 1166.77) rotate(180)"/><path class="cls-2" d="M413.35,206a104,104,0,1,1-104-104A104,104,0,0,1,413.35,206Z"/><path class="cls-3" d="M413.35,206h-208a104,104,0,0,1,208,0Z"/><rect class="cls-1" y="646.53" width="602.31" height="168.8"/><path class="cls-2" d="M602.31,646.53H799.78a0,0,0,0,1,0,0v0A168.8,168.8,0,0,1,631,815.33H602.31a0,0,0,0,1,0,0V646.53A0,0,0,0,1,602.31,646.53Z"/><circle class="cls-3" cx="193.58" cy="72.19" r="72.19"/><rect class="cls-3" x="742.45" y="497.55" width="57.33" height="148.98"/><path class="cls-3" d="M735.76,342.11h0a0,0,0,0,1,0,0V461.72a0,0,0,0,1,0,0h-22a0,0,0,0,1,0,0V364.09A22,22,0,0,1,735.76,342.11Z"/><path class="cls-3" d="M782.1,342.11h0a0,0,0,0,1,0,0V461.72a0,0,0,0,1,0,0h-22a0,0,0,0,1,0,0V364.09A22,22,0,0,1,782.1,342.11Z"/><path class="cls-3" d="M828.44,342.11h0a0,0,0,0,1,0,0V461.72a0,0,0,0,1,0,0h-22a0,0,0,0,1,0,0V364.09A22,22,0,0,1,828.44,342.11Z"/><path class="cls-3" d="M713.78,461.72H828.44a0,0,0,0,1,0,0v6.78a57.33,57.33,0,0,1-57.33,57.33h0a57.33,57.33,0,0,1-57.33-57.33v-6.78A0,0,0,0,1,713.78,461.72Z"/></g></g></svg>