<svg xmlns="http://www.w3.org/2000/svg" viewBox="0 0 293.97 244.97"><defs><style>.cls-1{fill:#f0f;}.cls-2{isolation:isolate;}.cls-3{fill:#0a23fb;}.cls-4{fill:none;stroke:#fff;stroke-miterlimit:10;stroke-width:2.97px;}</style></defs><g id="Layer_2" data-name="Layer 2"><g id="artwork_dark_bg" data-name="artwork dark bg"><circle class="cls-1" cx="80" cy="113.97" r="19.81"/><polygon points="227.37 193.97 34.65 193.97 60.19 133.78 227.37 133.78 227.37 193.97"/><rect class="cls-1" x="227.37" y="63.14" width="57.4" height="130.82"/><rect class="cls-2" x="218.18" width="75.8" height="105.01" rx="14.14"/><rect x="60.19" y="185.16" width="121.27" height="59.81"/><rect class="cls-3" x="60.19" y="82.97" width="87.92" height="11.19"/><rect class="cls-3" x="60.19" y="63.14" width="54.23" height="31.01"/><circle class="cls-4" cx="252.78" cy="52.51" r="8.35"/><path class="cls-4" d="M268.26,48.31,248.74,37a4.86,4.86,0,0,0-7.28,4.2V63.78a4.85,4.85,0,0,0,7.28,4.2l19.52-11.27A4.84,4.84,0,0,0,268.26,48.31Z"/><path d="M60.19,133.78h0a0,0,0,0,1,0,0V194a0,0,0,0,1,0,0H0a0,0,0,0,1,0,0v0A60.19,60.19,0,0,1,60.19,133.78Z"/><rect class="cls-1" y="193.97" width="60.19" height="51"/><circle class="cls-1" cx="133.3" cy="182.41" r="8.99"/><polygon class="cls-3" points="171.91 182.41 151.89 170.85 151.89 193.97 171.91 182.41"/></g></g></svg>