<svg xmlns="http://www.w3.org/2000/svg" viewBox="0 0 295.12 295.12"><defs><style>.cls-1{fill:#fff;}.cls-2{fill:#7373f9;}.cls-2,.cls-3,.cls-4{isolation:isolate;}.cls-3{fill:#dedeff;}.cls-4{fill:#b6b6ff;}.cls-5{fill:#01017a;}</style></defs><g id="Layer_2" data-name="Layer 2"><g id="about_artwork" data-name="about artwork"><rect class="cls-1" width="295.12" height="295.12"/><ellipse class="cls-2" cx="203.55" cy="149.09" rx="10.9" ry="17.49"/><ellipse class="cls-3" cx="91.73" cy="149.09" rx="10.9" ry="17.49"/><path class="cls-4" d="M198.75,127.55v46.73c0,1.09,0,2.17-.07,3.24-.06,1.57-.18,3.12-.33,4.66l0,.28C195.13,212,175,235.08,150.19,236.62c-.87,0-1.75.08-2.63.08s-1.76,0-2.63-.08C120.12,235.08,100,212,96.79,182.46l0-.28c-.15-1.54-.27-3.09-.33-4.66-.05-1.07-.07-2.15-.07-3.24V127.55a71.2,71.2,0,0,1,10.83-38.39,56.08,56.08,0,0,1,14.69-15.62,44.16,44.16,0,0,1,25.68-8.41c14.14,0,26.93,7,36.2,18.28a58.93,58.93,0,0,1,4.16,5.75A71.2,71.2,0,0,1,198.75,127.55Z"/><path class="cls-5" d="M136.66,176.43c0,2.12,4.88,3.83,10.9,3.83s10.9-1.71,10.9-3.83"/><path class="cls-5" d="M184,182.46a11.65,11.65,0,0,1,11,15.4c-7.32,21.84-24.49,37.5-44.79,38.76-.87,0-1.75.08-2.63.08s-1.76,0-2.63-.08c-20.29-1.26-37.47-16.92-44.79-38.76a11.65,11.65,0,0,1,11-15.4Z"/><path class="cls-1" d="M124.26,191.51c0,9,10.43,16.24,23.3,16.24s23.3-7.27,23.3-16.24Z"/><path class="cls-5" d="M148.66,53.61h38.5a17.77,17.77,0,0,1,17.77,17.77v0a17.77,17.77,0,0,1-17.77,17.77h-68.1a0,0,0,0,1,0,0V83.22a29.61,29.61,0,0,1,29.61-29.61Z"/><path class="cls-5" d="M121.88,73.54V89.16H107.19A56.08,56.08,0,0,1,121.88,73.54Z"/><path class="cls-2" d="M198.75,127.55v4h0a13.21,13.21,0,0,1-13.21-13.21V89.16h2.38A71.2,71.2,0,0,1,198.75,127.55Z"/><path class="cls-2" d="M96.36,127.55v4h0a13.2,13.2,0,0,0,13.21-13.21V89.16h-2.38A71.2,71.2,0,0,0,96.36,127.55Z"/><path class="cls-5" d="M155.6,139.67h0a6.11,6.11,0,0,1,5.11-6l24.83-4.15,4,10.19Z"/><path class="cls-5" d="M139.52,139.67h0a6.11,6.11,0,0,0-5.11-6l-24.84-4.15-4,10.19Z"/><rect class="cls-5" x="159.56" y="142.5" width="15.85" height="4.51"/><rect class="cls-5" x="119.71" y="142.5" width="15.85" height="4.51" transform="translate(255.26 289.51) rotate(180)"/></g></g></svg>