<svg xmlns="http://www.w3.org/2000/svg" viewBox="0 0 364.92 364.92"><defs><style>.cls-1{fill:none;}.cls-2{fill:blue;}.cls-3{fill:#fff;}.cls-4{fill:#f0f;}</style></defs><g id="Layer_2" data-name="Layer 2"><g id="Layer_1-2" data-name="Layer 1"><rect class="cls-1" width="364.92" height="364.92"/><path class="cls-2" d="M50.19,164.5H194a0,0,0,0,1,0,0V265.92a46.71,46.71,0,0,1-46.71,46.71H50.19a0,0,0,0,1,0,0V164.5A0,0,0,0,1,50.19,164.5Z" transform="translate(244.18 477.13) rotate(180)"/><path class="cls-3" d="M182.18,118.05A33.22,33.22,0,1,1,149,84.84,33.21,33.21,0,0,1,182.18,118.05Z"/><path class="cls-4" d="M182.18,118.05H115.75a33.22,33.22,0,0,1,66.43,0Z"/><rect class="cls-2" x="50.19" y="258.73" width="192.33" height="53.9"/><path class="cls-3" d="M242.52,258.73h63.05a0,0,0,0,1,0,0v0a53.9,53.9,0,0,1-53.9,53.9h-9.15a0,0,0,0,1,0,0v-53.9A0,0,0,0,1,242.52,258.73Z"/><circle class="cls-4" cx="112.01" cy="75.34" r="23.05"/><rect class="cls-4" x="287.27" y="211.16" width="18.31" height="47.57"/><path class="cls-4" d="M285.13,161.53h0a0,0,0,0,1,0,0v38.19a0,0,0,0,1,0,0h-7a0,0,0,0,1,0,0V168.54A7,7,0,0,1,285.13,161.53Z"/><path class="cls-4" d="M299.93,161.53h0a0,0,0,0,1,0,0v38.19a0,0,0,0,1,0,0h-7a0,0,0,0,1,0,0V168.54A7,7,0,0,1,299.93,161.53Z"/><path class="cls-4" d="M314.72,161.53h0a0,0,0,0,1,0,0v38.19a0,0,0,0,1,0,0h-7a0,0,0,0,1,0,0V168.54A7,7,0,0,1,314.72,161.53Z"/><path class="cls-4" d="M278.11,199.72h36.61a0,0,0,0,1,0,0v2.17a18.31,18.31,0,0,1-18.31,18.31h0a18.31,18.31,0,0,1-18.31-18.31v-2.17A0,0,0,0,1,278.11,199.72Z"/></g></g></svg>