<svg xmlns="http://www.w3.org/2000/svg" viewBox="0 0 860.19 337.1"><defs><style>.cls-1{fill:#fff;}.cls-2{fill:#f0f;}.cls-3{stroke:#fff;stroke-width:4.12px;}.cls-3,.cls-4,.cls-5{stroke-miterlimit:10;}.cls-4,.cls-5{fill:none;stroke-width:4.07px;}.cls-4{stroke:#f0f;}.cls-5{stroke:#0a23fb;}.cls-6{fill:#0a23fb;}</style></defs><g id="Layer_2" data-name="Layer 2"><g id="Layer_3" data-name="Layer 3"><circle class="cls-1" cx="700.07" cy="157.93" r="27.1"/><polygon class="cls-2" points="549.21 267.35 812.8 267.35 777.87 185.03 549.21 185.03 549.21 267.35"/><path class="cls-1" d="M470.71,88.42h0a78.51,78.51,0,0,1,78.51,78.51V267.35a0,0,0,0,1,0,0H470.71a0,0,0,0,1,0,0V88.42A0,0,0,0,1,470.71,88.42Z" transform="translate(1019.92 355.77) rotate(-180)"/><rect class="cls-3" x="458.13" y="2.06" width="103.67" height="143.62" rx="19.34" transform="translate(1019.92 147.74) rotate(-180)"/><rect class="cls-2" x="612.01" y="255.3" width="165.86" height="81.8" transform="translate(1389.89 592.39) rotate(-180)"/><circle class="cls-4" cx="505.45" cy="73.87" r="11.42"/><path class="cls-5" d="M526.63,68.13,499.92,52.71A6.63,6.63,0,0,0,490,58.45V89.29A6.63,6.63,0,0,0,499.92,95l26.71-15.42A6.63,6.63,0,0,0,526.63,68.13Z"/><path class="cls-2" d="M777.87,185h82.31a0,0,0,0,1,0,0v82.31a0,0,0,0,1,0,0h0A82.31,82.31,0,0,1,777.87,185v0A0,0,0,0,1,777.87,185Z" transform="translate(1638.06 452.38) rotate(-180)"/><rect class="cls-1" x="777.87" y="267.35" width="82.31" height="69.75" transform="translate(1638.06 604.44) rotate(-180)"/><path class="cls-6" d="M677.28,115.53h58.25a0,0,0,0,1,0,0v25.35a0,0,0,0,1,0,0H677.28a12.68,12.68,0,0,1-12.68-12.68v0a12.68,12.68,0,0,1,12.68-12.68Z"/><path class="cls-6" d="M707,115.53h31a44.78,44.78,0,0,1,44.78,44.78v85.38a0,0,0,0,1,0,0h-5.62A70.13,70.13,0,0,1,707,175.55v-60a0,0,0,0,1,0,0Z"/><circle class="cls-2" cx="109.41" cy="157.93" r="27.1"/><polygon class="cls-6" points="310.97 267.35 47.39 267.35 82.31 185.03 310.97 185.03 310.97 267.35"/><path class="cls-2" d="M311,88.42h78.51a0,0,0,0,1,0,0V188.84A78.51,78.51,0,0,1,311,267.35h0a0,0,0,0,1,0,0V88.42A0,0,0,0,1,311,88.42Z"/><rect class="cls-3" x="298.39" y="2.06" width="103.67" height="143.62" rx="19.34"/><rect class="cls-6" x="82.31" y="255.3" width="165.86" height="81.8"/><rect class="cls-6" x="82.31" y="115.53" width="120.25" height="15.3"/><rect class="cls-6" x="82.31" y="88.42" width="74.17" height="42.41"/><circle class="cls-4" cx="345.72" cy="73.87" r="11.42"/><path class="cls-5" d="M366.9,68.13,340.19,52.71a6.63,6.63,0,0,0-9.95,5.74V89.29A6.63,6.63,0,0,0,340.19,95L366.9,79.61A6.63,6.63,0,0,0,366.9,68.13Z"/><path class="cls-6" d="M82.31,185h0a0,0,0,0,1,0,0v82.31a0,0,0,0,1,0,0H0a0,0,0,0,1,0,0v0A82.31,82.31,0,0,1,82.31,185Z"/><rect class="cls-2" y="267.35" width="82.31" height="69.75"/><circle class="cls-2" cx="182.31" cy="251.54" r="12.3"/><polygon class="cls-1" points="235.12 251.54 207.74 235.73 207.74 267.35 235.12 251.54"/></g></g></svg>