<svg xmlns="http://www.w3.org/2000/svg" viewBox="0 0 136.11 34.87"><defs><style>.cls-1{fill:none;}.cls-2{fill:#fff;}.cls-3{fill:#f0f;}.cls-4{fill:blue;}</style></defs><g id="Layer_2" data-name="Layer 2"><g id="website"><g id="Group_63" data-name="Group 63"><path id="Path_50" data-name="Path 50" class="cls-1" d="M12.8,7.6a9.16,9.16,0,0,1,1.74.16L8,4A2.88,2.88,0,0,0,5,4,2.92,2.92,0,0,0,3.55,6.49v7.62A9.84,9.84,0,0,1,12.8,7.6Z"/><path id="Path_51" data-name="Path 51" class="cls-1" d="M89.11,13.85a3.13,3.13,0,0,0-2.38,1,4.55,4.55,0,0,0-1.11,2.72H92.3a4.22,4.22,0,0,0-.88-2.74A2.93,2.93,0,0,0,89.11,13.85Z"/><path id="Path_52" data-name="Path 52" class="cls-1" d="M12.8,11.15a6.29,6.29,0,1,0,6.29,6.28A6.29,6.29,0,0,0,12.8,11.15Z"/><path id="Path_53" data-name="Path 53" class="cls-1" d="M46.83,14.12a3.36,3.36,0,0,0-2.75,1.18,5.22,5.22,0,0,0-1,3.4,5.55,5.55,0,0,0,1,3.49,3.65,3.65,0,0,0,5.46,0,5.46,5.46,0,0,0,1-3.46,5.43,5.43,0,0,0-1-3.45A3.28,3.28,0,0,0,46.83,14.12Z"/><path id="Path_54" data-name="Path 54" class="cls-1" d="M3.55,20.76v7.62A2.94,2.94,0,0,0,8,30.92l6.59-3.81a10.16,10.16,0,0,1-1.74.17A9.85,9.85,0,0,1,3.55,20.76Z"/><path id="Path_55" data-name="Path 55" class="cls-1" d="M26.9,14.9l-6.6-3.81a9.8,9.8,0,0,1,0,12.69L26.9,20a2.92,2.92,0,0,0,0-5.07Z"/><path id="Path_56" data-name="Path 56" class="cls-1" d="M128.73,14.12a3.28,3.28,0,0,0-2.74,1.2,5.4,5.4,0,0,0-1,3.44,5.46,5.46,0,0,0,1,3.46,3.65,3.65,0,0,0,5.46,0,5.55,5.55,0,0,0,1-3.49,5.29,5.29,0,0,0-1-3.4A3.32,3.32,0,0,0,128.73,14.12Z"/><path id="Path_57" data-name="Path 57" class="cls-1" d="M110.51,19.65a2.89,2.89,0,0,0-1.56.62,1.57,1.57,0,0,0-.48,1.21,2,2,0,0,0,.65,1.55,2.36,2.36,0,0,0,1.66.61,3.18,3.18,0,0,0,2.41-1,3.61,3.61,0,0,0,.93-2.56v-.62h-.53A19.82,19.82,0,0,0,110.51,19.65Z"/><path id="Path_58" data-name="Path 58" class="cls-2" d="M50.47,13.73a4.55,4.55,0,0,0-1.86-1.83,5.86,5.86,0,0,0-2.78-.65,6,6,0,0,0-5.61,3.52,9,9,0,0,0-.81,3.93,9.25,9.25,0,0,0,.81,4,6.23,6.23,0,0,0,2.28,2.67,6,6,0,0,0,3.33.95,5.67,5.67,0,0,0,2.79-.68,4.63,4.63,0,0,0,1.88-1.89v2.33h3.67V5.22h-3.7Zm-.93,8.49a3.3,3.3,0,0,1-2.74,1.21,3.26,3.26,0,0,1-2.72-1.24,5.49,5.49,0,0,1-1-3.49,5.24,5.24,0,0,1,1-3.4,3.36,3.36,0,0,1,2.75-1.18,3.27,3.27,0,0,1,2.7,1.2,5.4,5.4,0,0,1,1,3.44,5.45,5.45,0,0,1-1,3.46Z"/><rect id="Rectangle_29" data-name="Rectangle 29" class="cls-2" x="57.98" y="11.6" width="3.69" height="14.46"/><rect id="Rectangle_30" data-name="Rectangle 30" class="cls-2" x="57.77" y="4.89" width="4.08" height="3.64"/><path id="Path_59" data-name="Path 59" class="cls-2" d="M73.89,11.25a6,6,0,0,0-2.81.65,5,5,0,0,0-2,1.86V11.6H65.49V26.06h3.7V17.87a3.7,3.7,0,0,1,1-2.69,3.35,3.35,0,0,1,2.56-1,2.43,2.43,0,0,1,2,.76,3.89,3.89,0,0,1,.63,2.46v8.66H79V17.19a6.71,6.71,0,0,0-1.27-4.46A4.83,4.83,0,0,0,73.89,11.25Z"/><path id="Path_60" data-name="Path 60" class="cls-2" d="M89,11.25a7.09,7.09,0,0,0-3.65.95,6.41,6.41,0,0,0-2.5,2.66A8.51,8.51,0,0,0,82,18.79,7.35,7.35,0,0,0,84,24.29a7.66,7.66,0,0,0,5.6,2,9.66,9.66,0,0,0,3.06-.5,7.68,7.68,0,0,0,2.53-1.33l-1.07-2.54a7,7,0,0,1-4.37,1.53,4.18,4.18,0,0,1-3-1,4.51,4.51,0,0,1-1.21-3h9.84v-1a7.62,7.62,0,0,0-1.73-5.29A6,6,0,0,0,89,11.25Zm-3.4,6.27a4.55,4.55,0,0,1,1.11-2.72,3.13,3.13,0,0,1,2.38-1,2.93,2.93,0,0,1,2.31.93,4.22,4.22,0,0,1,.88,2.74Z"/><path id="Path_61" data-name="Path 61" class="cls-2" d="M109,5.22H91.59V8.35h6.8V26.06h3.82V8.35H109Z"/><path id="Path_62" data-name="Path 62" class="cls-2" d="M111.64,11.25a11.54,11.54,0,0,0-3.25.5A11.22,11.22,0,0,0,105.46,13l1,2.54A12.45,12.45,0,0,1,109,14.45a8.22,8.22,0,0,1,2.41-.4,2.9,2.9,0,0,1,2.12.65,3,3,0,0,1,.63,2.13v.68h-.74a23.76,23.76,0,0,0-5,.42,4.86,4.86,0,0,0-2.65,1.33,3.67,3.67,0,0,0-.81,2.51,4.13,4.13,0,0,0,.68,2.31,4.56,4.56,0,0,0,1.86,1.62,5.72,5.72,0,0,0,2.63.59,4.68,4.68,0,0,0,2.5-.65,3.75,3.75,0,0,0,1.58-1.8v2.22h3.52V17.28a6.16,6.16,0,0,0-1.48-4.55A6.17,6.17,0,0,0,111.64,11.25Zm2.48,8.84a3.61,3.61,0,0,1-.93,2.56,3.16,3.16,0,0,1-2.41,1,2.33,2.33,0,0,1-1.65-.61,2,2,0,0,1-.65-1.55,1.53,1.53,0,0,1,.47-1.21,2.89,2.89,0,0,1,1.57-.62,19.62,19.62,0,0,1,3.07-.18h.53Z"/><path id="Path_63" data-name="Path 63" class="cls-2" d="M135.3,14.77a6.06,6.06,0,0,0-2.26-2.6,6.14,6.14,0,0,0-3.34-.92,5.73,5.73,0,0,0-2.75.64,4.33,4.33,0,0,0-1.86,1.81V5.22h-3.7V26.06H125V23.73a4.54,4.54,0,0,0,1.87,1.89,5.69,5.69,0,0,0,2.8.68,5.94,5.94,0,0,0,3.32-.95,6.28,6.28,0,0,0,2.28-2.67,9.25,9.25,0,0,0,.81-4A8.86,8.86,0,0,0,135.3,14.77Zm-3.85,7.42a3.65,3.65,0,0,1-5.46,0,5.46,5.46,0,0,1-1-3.46,5.4,5.4,0,0,1,1-3.44,3.74,3.74,0,0,1,5.47,0,5.29,5.29,0,0,1,1,3.4,5.49,5.49,0,0,1-1,3.49Z"/><path id="Path_64" data-name="Path 64" class="cls-3" d="M20.3,11.09,14.54,7.76A9.31,9.31,0,0,0,12.8,7.6a9.83,9.83,0,0,0-9.25,6.51v6.65a9.83,9.83,0,0,0,9.25,6.51,10.24,10.24,0,0,0,1.74-.16l5.76-3.33a9.77,9.77,0,0,0,0-12.69ZM12.8,23.72a6.29,6.29,0,1,1,6.29-6.29A6.3,6.3,0,0,1,12.8,23.72Z"/><path id="Path_65" data-name="Path 65" class="cls-4" d="M28.68,11.82,9.72.88A6.48,6.48,0,0,0,0,6.49V28.38A6.44,6.44,0,0,0,3.24,34a6.56,6.56,0,0,0,3.24.88A6.56,6.56,0,0,0,9.72,34l19-10.94a6.49,6.49,0,0,0,0-11.23ZM26.9,20l-6.6,3.81-5.76,3.33-6.6,3.81a2.93,2.93,0,0,1-4.39-2.54V6.49A2.89,2.89,0,0,1,5,4a2.92,2.92,0,0,1,1.47-.4A3,3,0,0,1,7.94,4l6.6,3.81,5.76,3.33,6.6,3.81a2.92,2.92,0,0,1,0,5.07Z"/></g></g></g></svg>