<svg xmlns="http://www.w3.org/2000/svg" viewBox="0 0 39.87 43.61"><defs><style>.cls-1{fill:#f0f;}.cls-2{fill:blue;}</style></defs><g id="Layer_2" data-name="Layer 2"><g id="website"><g id="Group_56" data-name="Group 56"><g id="Group_56-2" data-name="Group 56-2"><path id="Path_48" data-name="Path 48" class="cls-1" d="M15.91,33.93A12.14,12.14,0,1,1,28,21.79h0A12.14,12.14,0,0,1,15.91,33.93Zm0-20.55a8.42,8.42,0,1,0,8.42,8.41h0A8.42,8.42,0,0,0,15.91,13.38Z"/></g><g id="Group_58" data-name="Group 58"><g id="Group_57" data-name="Group 57"><path id="Path_49" data-name="Path 49" class="cls-2" d="M7.86,43.61A7.89,7.89,0,0,1,0,35.74V7.85a7.86,7.86,0,0,1,11.79-6.8L35.94,15a7.86,7.86,0,0,1,0,13.61L11.79,42.55A7.88,7.88,0,0,1,7.86,43.61Zm0-39.91A4.15,4.15,0,0,0,3.72,7.85V35.74a4.13,4.13,0,0,0,6.21,3.58L34.08,25.38a4.14,4.14,0,0,0,1.51-5.66,4.05,4.05,0,0,0-1.51-1.51L9.93,4.26A4.2,4.2,0,0,0,7.86,3.7Z"/></g></g></g></g></g></svg>