<svg xmlns="http://www.w3.org/2000/svg" viewBox="0 0 98.87 93.92"><defs><style>.cls-1,.cls-2{fill:none;stroke-linecap:round;stroke-linejoin:round;stroke-width:7.2px;}.cls-1{stroke:#f0f;}.cls-2,.cls-3,.cls-4{stroke:blue;}.cls-3{fill:#110cff;}.cls-3,.cls-4{stroke-miterlimit:10;stroke-width:4px;}.cls-4{fill:#fff;}</style></defs><g id="Layer_2" data-name="Layer 2"><g id="Layer_1-2" data-name="Layer 1"><polyline class="cls-1" points="35.54 61.14 43.82 69.43 64.09 49.16"/><rect class="cls-2" x="14.32" y="27.43" width="70.84" height="62.88" rx="7.64"/><g id="Group_818" data-name="Group 818"><g id="Group_813" data-name="Group 813"><path id="Path_282" data-name="Path 282" class="cls-3" d="M49.83,35.17h0c5.52,0,9.76-3.9,9.49-8.48L57.87,2H41.64L40.31,26.69C40.06,31.27,44.32,35.17,49.83,35.17Z"/></g><g id="Group_814" data-name="Group 814"><path id="Path_283" data-name="Path 283" class="cls-4" d="M69.81,35.17h0c5.51,0,9.32-3.9,8.53-8.48L74.11,2H57.88l1.44,24.69C59.59,31.27,64.29,35.17,69.81,35.17Z"/></g><g id="Group_815" data-name="Group 815"><path id="Path_284" data-name="Path 284" class="cls-3" d="M89,35.17h0c5.51,0,8.89-3.9,7.61-8.48L90.93,6.4A6.42,6.42,0,0,0,84.61,2H73.46l4.12,24.69C78.35,31.27,83.47,35.17,89,35.17Z"/></g><g id="Group_816" data-name="Group 816"><path id="Path_285" data-name="Path 285" class="cls-3" d="M9.89,35.17h0c5.51,0,10.63-3.9,11.4-8.48L25.41,2H14.26A6.4,6.4,0,0,0,8,6.4L2.27,26.69C1,31.27,4.37,35.17,9.89,35.17Z"/></g><g id="Group_817" data-name="Group 817"><path id="Path_286" data-name="Path 286" class="cls-4" d="M29.86,35.17h0c5.52,0,10.2-3.9,10.45-8.48L41.64,2H25.41L21.29,26.69C20.52,31.27,24.34,35.17,29.86,35.17Z"/></g></g></g></g></svg>