<svg xmlns="http://www.w3.org/2000/svg" viewBox="0 0 1056.13 847.76"><defs><style>.cls-1{fill:#10f;}.cls-2{fill:#fff;}.cls-3{fill:#110cff;}.cls-4{fill:#f0f;}.cls-5,.cls-6{fill:none;stroke-miterlimit:10;stroke-width:8.92px;}.cls-5{stroke:#f0f;}.cls-6{stroke:#10f;}</style></defs><g id="Layer_2" data-name="Layer 2"><g id="Layer_1-2" data-name="Layer 1"><g id="Group_803" data-name="Group 803"><rect id="Rectangle_49" data-name="Rectangle 49" class="cls-1" x="115.91" y="182.25" width="134.53" height="174.98"/><path id="Rectangle_50" data-name="Rectangle 50" class="cls-2" d="M220.91,78.68h258v105h-363A105,105,0,0,1,220.91,78.68Z"/><path id="Rectangle_42" data-name="Rectangle 42" class="cls-3" d="M931.42,196.29h114.85v25.2a47.56,47.56,0,0,1-47.55,47.56H883.86v-25.2a47.55,47.55,0,0,1,47.55-47.56Z"/><path id="Rectangle_43" data-name="Rectangle 43" class="cls-4" d="M488.23,0h56.16a51.17,51.17,0,0,1,51.17,51.17v128.2H488.23V0Z"/><path id="Rectangle_44" data-name="Rectangle 44" class="cls-2" d="M488.23,179.37H380.9V51.17A51.17,51.17,0,0,1,432.07,0h56.16V179.37Z"/><rect id="Rectangle_45" data-name="Rectangle 45" class="cls-4" x="727.77" y="78.68" width="121.83" height="235.21"/><rect id="Rectangle_46" data-name="Rectangle 46" class="cls-4" x="554.65" y="78.68" width="294.95" height="104.99"/><path id="Rectangle_47" data-name="Rectangle 47" class="cls-4" d="M951.13,313.89h0a105,105,0,0,1,105,105V621.3h0a105,105,0,0,1-105-105V313.89Z"/><circle id="Ellipse_80" data-name="Ellipse 80" class="cls-2" cx="350.7" cy="269.05" r="34.27"/><circle id="Ellipse_81" data-name="Ellipse 81" class="cls-4" cx="918.13" cy="269.05" r="34.27"/><rect id="Rectangle_48" data-name="Rectangle 48" class="cls-1" x="115.91" y="313.89" width="269.05" height="170.77"/><rect id="Rectangle_51" data-name="Rectangle 51" x="421.81" y="28.86" width="132.83" height="211.33" rx="27.56"/><path id="Union_2" data-name="Union 2" class="cls-4" d="M0,847.76l115.91-62.6V484.67h383V368.76h62.61V619.19H250.44V847.76Z"/><rect id="Rectangle_54" data-name="Rectangle 54" class="cls-1" x="816.6" y="484.67" width="134.53" height="319.1"/><path id="Path_273" data-name="Path 273" class="cls-1" d="M700.69,847.76H951.13V785.15H816.6Z"/><g id="Group_802" data-name="Group 802"><circle id="Ellipse_82" data-name="Ellipse 82" class="cls-5" cx="482.34" cy="134.52" r="21.39"/><g id="Group_801" data-name="Group 801"><path id="Path_274" data-name="Path 274" class="cls-6" d="M522,123.77,472,94.89a12.42,12.42,0,0,0-18.63,10.76v57.76A12.41,12.41,0,0,0,472,174.17l50-28.88a12.42,12.42,0,0,0,0-21.52Z"/></g></g><rect id="Rectangle_56" data-name="Rectangle 56" class="cls-1" x="561.5" y="368.76" width="68.12" height="250.44"/><rect id="Rectangle_57" data-name="Rectangle 57" class="cls-1" x="602.8" y="484.67" width="257.63" height="134.53"/><rect id="Rectangle_58" data-name="Rectangle 58" class="cls-2" x="727.77" y="313.89" width="223.36" height="170.77"/><rect id="Rectangle_79" data-name="Rectangle 79" class="cls-2" x="115.91" y="182.25" width="134.53" height="45.39"/></g></g></g></svg>