<svg xmlns="http://www.w3.org/2000/svg" viewBox="0 0 295.12 295.12"><defs><style>.cls-1{fill:#f0f;}.cls-2{fill:#7373f9;}.cls-2,.cls-3,.cls-5,.cls-6{isolation:isolate;}.cls-3{fill:#dedeff;}.cls-4,.cls-6{fill:#01017a;}.cls-5,.cls-7{fill:#b6b6ff;}.cls-8{fill:#fff;}.cls-9{fill:none;stroke:#01017a;stroke-miterlimit:10;stroke-width:5px;}</style></defs><g id="Layer_2" data-name="Layer 2"><g id="about_artwork" data-name="about artwork"><rect class="cls-1" width="295.12" height="295.12"/><ellipse class="cls-2" cx="203.47" cy="167.6" rx="10.9" ry="17.49"/><ellipse class="cls-3" cx="91.65" cy="167.6" rx="10.9" ry="17.49"/><path class="cls-4" d="M109,72.56h8.6a0,0,0,0,1,0,0v83.77a0,0,0,0,1,0,0h0a30.08,30.08,0,0,1-30.08-30.08V94A21.48,21.48,0,0,1,109,72.56Z"/><path class="cls-4" d="M148.33,44.21h65a0,0,0,0,1,0,0V99a29.9,29.9,0,0,1-29.9,29.9H106.2a0,0,0,0,1,0,0V86.35A42.14,42.14,0,0,1,148.33,44.21Z"/><path class="cls-5" d="M198.67,141.76v46.73a79,79,0,0,1-.4,7.9c-3.08,29.7-23.27,52.9-48.15,54.44-.87,0-1.75.08-2.63.08s-1.77,0-2.64-.08c-24.89-1.54-45.08-24.74-48.16-54.44a79,79,0,0,1-.4-7.9V141.76c0-34.48,22.92-62.42,51.2-62.42,14.13,0,26.93,7,36.19,18.28S198.67,124.52,198.67,141.76Z"/><path class="cls-6" d="M146.62,182.83h.94a8,8,0,0,1,8,8v0a0,0,0,0,1,0,0H138.66a0,0,0,0,1,0,0v0A8,8,0,0,1,146.62,182.83Z"/><path class="cls-6" d="M195.92,208.75c-6.64,23.56-24.5,40.76-45.8,42.08h-5.27c-21.31-1.32-39.17-18.52-45.81-42.08a9.77,9.77,0,0,1,9.45-12.36h78A9.77,9.77,0,0,1,195.92,208.75Z"/><path class="cls-7" d="M121.74,196.38c0,17.34,11.53,31.39,25.74,31.39s25.74-14.05,25.74-31.39Z"/><rect class="cls-6" x="119.86" y="196.39" width="57.68" height="5.95"/><rect class="cls-4" x="155.52" y="132.38" width="33.95" height="11.17"/><rect class="cls-4" x="104.72" y="132.38" width="33.95" height="11.17" transform="translate(243.38 275.92) rotate(180)"/><path class="cls-6" d="M171,147.48a8.7,8.7,0,0,0-8.71,8.7h17.41A8.7,8.7,0,0,0,171,147.48Z"/><path class="cls-8" d="M147.48,212.08c13.86,0,25.1-4.36,25.1-9.75h-50.2C122.38,207.72,133.62,212.08,147.48,212.08Z"/><path class="cls-4" d="M144.21,75.65h20.1a34.62,34.62,0,0,1,34.62,34.62v14a0,0,0,0,1,0,0h-20.1a34.62,34.62,0,0,1-34.62-34.62v-14A0,0,0,0,1,144.21,75.65Z" transform="translate(343.14 199.96) rotate(-180)"/><path class="cls-6" d="M122.2,147.48a8.7,8.7,0,0,1,8.71,8.7H113.5A8.7,8.7,0,0,1,122.2,147.48Z"/><line class="cls-9" x1="141.23" y1="161.36" x2="152.78" y2="161.36"/><rect class="cls-9" x="152.78" y="145.16" width="36.52" height="36.83" rx="6.17"/><rect class="cls-9" x="104.71" y="145.16" width="36.52" height="36.83" rx="6.17" transform="translate(245.94 327.15) rotate(180)"/><line class="cls-9" x1="189.29" y1="151.33" x2="203.47" y2="151.33"/><line class="cls-9" x1="103.95" y1="151.33" x2="89.77" y2="151.33"/></g></g></svg>