<svg xmlns="http://www.w3.org/2000/svg" viewBox="0 0 364.92 364.92"><defs><style>.cls-1{fill:none;}.cls-2{fill:blue;}.cls-3{fill:#fff;}.cls-4{fill:#f0f;}</style></defs><g id="Layer_2" data-name="Layer 2"><g id="Layer_1-2" data-name="Layer 1"><rect class="cls-1" width="364.92" height="364.92"/><path class="cls-2" d="M24.14,155.52h143.8a0,0,0,0,1,0,0V256.93a46.71,46.71,0,0,1-46.71,46.71H24.14a0,0,0,0,1,0,0V155.52A0,0,0,0,1,24.14,155.52Z" transform="translate(192.08 459.16) rotate(180)"/><polygon class="cls-2" points="232.01 205 308.23 205 340.78 303.64 264.55 303.64 232.01 205"/><rect class="cls-2" x="97.66" y="155.52" width="134.35" height="49.48"/><circle class="cls-3" cx="122.9" cy="109.06" r="33.19"/><path class="cls-3" d="M232,155.52h32.75a43.41,43.41,0,0,1,43.41,43.41V205a0,0,0,0,1,0,0H232a0,0,0,0,1,0,0V155.52A0,0,0,0,1,232,155.52Z"/><polygon class="cls-4" points="308.23 205 232.01 205 199.47 303.64 275.69 303.64 308.23 205"/><rect x="77.59" y="155.52" width="20.07" height="148.13"/><rect x="147.87" y="155.52" width="20.07" height="148.13"/><rect x="77.59" y="225.21" width="90.35" height="78.43"/><path class="cls-2" d="M118.36,61.27h63.47a0,0,0,0,1,0,0v0a41.7,41.7,0,0,1-41.7,41.7h-55a0,0,0,0,1,0,0V94.56a33.28,33.28,0,0,1,33.28-33.28Z"/><path class="cls-2" d="M85.08,103h9.3a21.6,21.6,0,0,1,21.6,21.6v0a0,0,0,0,1,0,0H85.08a0,0,0,0,1,0,0V103A0,0,0,0,1,85.08,103Z" transform="translate(201.06 227.55) rotate(180)"/></g></g></svg>