<svg xmlns="http://www.w3.org/2000/svg" viewBox="0 0 172 149.15"><defs><style>.cls-1{fill:#f0f;}.cls-2{fill:blue;}.cls-3{fill:none;stroke:#f0f;stroke-linecap:round;stroke-width:6px;}</style></defs><g id="Layer_2" data-name="Layer 2"><g id="Layer_1-2" data-name="Layer 1"><g id="Group_211" data-name="Group 211"><path id="Path_67" data-name="Path 67" class="cls-1" d="M86,149.15a12.7,12.7,0,1,1,12.7-12.7h0A12.72,12.72,0,0,1,86,149.15Zm0-21a8.33,8.33,0,1,0,8.33,8.33h0A8.34,8.34,0,0,0,86,128.12Z"/></g><g id="notification_1" data-name="notification 1"><g id="Group_212" data-name="Group 212"><path id="Path_68" data-name="Path 68" class="cls-2" d="M124.32,123.73a13.89,13.89,0,0,1-13.85,13.84h-49a13.84,13.84,0,0,1-12-20.75L74,74.42a13.82,13.82,0,0,1,24,0l24.48,42.4A13.75,13.75,0,0,1,124.32,123.73Zm-69.46,0a6.66,6.66,0,0,0,6.65,6.64h49a6.65,6.65,0,0,0,5.75-10L91.74,78a6.64,6.64,0,0,0-9.07-2.43A6.56,6.56,0,0,0,80.25,78h0l-24.48,42.4a6.53,6.53,0,0,0-.9,3.31Z"/></g></g><g id="notification_lines" data-name="notification lines"><line id="Line_27" data-name="Line 27" class="cls-3" x1="87" y1="45" x2="87" y2="3"/><line id="Line_28" data-name="Line 28" class="cls-3" x1="133" y1="76" x2="169" y2="40"/><line id="Line_29" data-name="Line 29" class="cls-3" x1="42" y1="76" x2="3" y2="37"/></g></g></g></svg>