<svg xmlns="http://www.w3.org/2000/svg" viewBox="0 0 77.73 49.11"><defs><style>.cls-1{fill:blue;}.cls-2{fill:#fff;}.cls-3{fill:#f0f;}</style></defs><g id="Layer_2" data-name="Layer 2"><g id="Layer_1-2" data-name="Layer 1"><path class="cls-1" d="M77.73,24.55S60.33,0,38.87,0,0,24.55,0,24.55,17.4,49.11,38.87,49.11,77.73,24.55,77.73,24.55Z"/><circle class="cls-2" cx="38.87" cy="24.55" r="16.58"/><path class="cls-3" d="M44.45,31.51a6.8,6.8,0,0,1-3.72,1.87v2.81H37.25V33.48a12.61,12.61,0,0,1-3-.59,8.67,8.67,0,0,1-2.38-1.18l1.42-3.24A9.37,9.37,0,0,0,38.54,30c1.83,0,2.74-.58,2.74-1.74a1.17,1.17,0,0,0-.75-1.11,13.31,13.31,0,0,0-2.46-.78,24,24,0,0,1-3-1A5.51,5.51,0,0,1,33,23.9a4.24,4.24,0,0,1-.89-2.82,4.76,4.76,0,0,1,1.4-3.41,6.86,6.86,0,0,1,3.68-1.91V12.92h3.48v2.74a12.32,12.32,0,0,1,2.69.66,6.75,6.75,0,0,1,2,1.11l-1.42,3.23a10.73,10.73,0,0,0-2.44-1.18,7.67,7.67,0,0,0-2.36-.41,3.26,3.26,0,0,0-1.83.45,1.41,1.41,0,0,0-.69,1.26,1.21,1.21,0,0,0,.44,1,3,3,0,0,0,1.08.6c.43.14,1,.31,1.84.51a21,21,0,0,1,3,.9,5,5,0,0,1,2,1.51,4.39,4.39,0,0,1,.84,2.82A4.75,4.75,0,0,1,44.45,31.51Z"/></g></g></svg>