<svg xmlns="http://www.w3.org/2000/svg" viewBox="0 0 312.93 205.15"><defs><style>.cls-1{fill:blue;}.cls-2{fill:#435eff;}.cls-3{fill:#fd28fc;}.cls-4{fill:#fff;}</style></defs><g id="Layer_2" data-name="Layer 2"><g id="Layer_1-2" data-name="Layer 1"><path class="cls-1" d="M273.3,65.91V180.65a24.51,24.51,0,0,1-24.52,24.5H24.53A24.51,24.51,0,0,1,0,180.65V65.91A24.47,24.47,0,0,1,24.53,41.38H248.78A24.47,24.47,0,0,1,273.3,65.91Z"/><path class="cls-2" d="M265.23,47.69,136.64,148.34,8.07,47.69a24.73,24.73,0,0,1,16.46-6.31H248.78A24.66,24.66,0,0,1,265.23,47.69Z"/><circle class="cls-3" cx="265.23" cy="47.69" r="47.69"/><circle class="cls-4" cx="265.23" cy="47.69" r="16.87"/></g></g></svg>