<svg xmlns="http://www.w3.org/2000/svg" viewBox="0 0 55.55 88.93"><defs><style>.cls-1{fill:blue;}.cls-2{fill:#f0f;}</style></defs><g id="Layer_2" data-name="Layer 2"><g id="Layer_1-2" data-name="Layer 1"><path class="cls-1" d="M27.78,48.26h-8.9a18.89,18.89,0,0,1,0-37.77H45.93a3.6,3.6,0,1,1,0,7.2h-27a11.69,11.69,0,0,0,0,23.37h8.9a3.6,3.6,0,0,1,0,7.2Z"/><path class="cls-1" d="M36.67,78.82H9.62a3.6,3.6,0,0,1,0-7.2H36.67a11.68,11.68,0,0,0,0-23.36H27.78a3.6,3.6,0,1,1,0-7.2h8.89a18.88,18.88,0,0,1,0,37.76Z"/><circle class="cls-2" cx="45.93" cy="14.09" r="6.52"/><circle class="cls-2" cx="9.62" cy="75.22" r="6.52"/><path class="cls-1" d="M26.77,17.3a3.6,3.6,0,0,1-3.6-3.6V3.6a3.6,3.6,0,0,1,7.2,0V13.7A3.6,3.6,0,0,1,26.77,17.3Z"/><path class="cls-1" d="M26.77,88.93a3.6,3.6,0,0,1-3.6-3.6V75.22a3.6,3.6,0,0,1,7.2,0V85.33A3.6,3.6,0,0,1,26.77,88.93Z"/></g></g></svg>