<svg xmlns="http://www.w3.org/2000/svg" viewBox="0 0 78.44 71.04"><defs><style>.cls-1{stroke:#fff;stroke-width:2px;}.cls-1,.cls-2,.cls-3{stroke-miterlimit:10;}.cls-2,.cls-3{fill:none;stroke-width:3px;}.cls-2{stroke:#f0f;}.cls-3{stroke:blue;}.cls-4{fill:#0a23fb;}.cls-5{fill:#fff;}</style></defs><g id="Layer_2" data-name="Layer 2"><g id="artwork_dark_bg" data-name="artwork dark bg"><rect class="cls-1" x="9.65" y="21.34" width="59.15" height="48.7"/><circle class="cls-2" cx="35.89" cy="45.69" r="8.43"/><path class="cls-3" d="M51.52,41.45,31.81,30.08a4.89,4.89,0,0,0-7.34,4.23V57.07a4.89,4.89,0,0,0,7.34,4.23L51.52,49.93A4.9,4.9,0,0,0,51.52,41.45Z"/><path class="cls-4" d="M39.55,30.76h0a7.62,7.62,0,0,0,7.84-7.86L46.2,0H32.78L31.67,22.9A7.67,7.67,0,0,0,39.55,30.76Z"/><path class="cls-5" d="M56.06,30.76h0a6.8,6.8,0,0,0,7.06-7.86L59.62,0H46.2l1.19,22.9A8.67,8.67,0,0,0,56.06,30.76Z"/><path class="cls-4" d="M71.92,30.76h0c4.56,0,7.35-3.61,6.29-7.86L72.5,0H59.08l3.41,22.9A9.77,9.77,0,0,0,71.92,30.76Z"/><path class="cls-4" d="M6.52,30.76h0A9.77,9.77,0,0,0,16,22.9L19.35,0H5.93L.22,22.9C-.83,27.15,2,30.76,6.52,30.76Z"/><path class="cls-5" d="M23,30.76h0a8.62,8.62,0,0,0,8.64-7.86L32.78,0H19.35L16,22.9A6.82,6.82,0,0,0,23,30.76Z"/></g></g></svg>