<svg xmlns="http://www.w3.org/2000/svg" viewBox="0 0 995.33 888.23"><defs><style>.cls-1{fill:#fff;}.cls-2{fill:#f0f;}.cls-3{fill:#10f;}</style></defs><g id="Layer_2" data-name="Layer 2"><g id="Layer_1-2" data-name="Layer 1"><g id="Group_804" data-name="Group 804"><path id="Rectangle_59" data-name="Rectangle 59" d="M279.08,375.16H386.51v67A26.49,26.49,0,0,1,360,468.63H279.08V375.16Z"/><rect id="Rectangle_60" data-name="Rectangle 60" x="298.93" y="468.63" width="51.46" height="64.92"/><rect id="Rectangle_61" data-name="Rectangle 61" x="128.66" y="532.99" width="370.14" height="355.24"/><rect id="Rectangle_62" data-name="Rectangle 62" class="cls-1" x="184.46" y="532.99" width="258.54" height="160.63"/><rect id="Rectangle_63" data-name="Rectangle 63" class="cls-1" x="498.81" y="532.99" width="323.6" height="117.09"/><rect id="Rectangle_64" data-name="Rectangle 64" class="cls-1" x="640.12" y="352.99" width="182.28" height="297.1"/><path id="Rectangle_65" data-name="Rectangle 65" d="M696.46,296.65H900.23A56.34,56.34,0,0,1,843.89,353H640.12A56.34,56.34,0,0,1,696.46,296.65Z"/><path id="Rectangle_66" data-name="Rectangle 66" class="cls-2" d="M289.32,346.26h24.41V502.7A129.27,129.27,0,0,1,184.46,632h0V451.12A104.86,104.86,0,0,1,289.32,346.26Z"/><path id="Rectangle_67" data-name="Rectangle 67" class="cls-2" d="M307.65,346.26H385a21.87,21.87,0,0,1,21.87,21.87h0A21.87,21.87,0,0,1,385,390H307.65V346.26Z"/><rect id="Rectangle_68" data-name="Rectangle 68" class="cls-2" x="579.57" y="273.56" width="415.77" height="23.08"/><rect id="Rectangle_69" data-name="Rectangle 69" class="cls-1" x="670.85" y="124.94" width="99.33" height="99.33"/><path id="Path_275" data-name="Path 275" class="cls-2" d="M720.51,49.67,670.85,99.33h99.33V0Z"/><circle id="Ellipse_83" data-name="Ellipse 83" class="cls-2" cx="847.2" cy="174.6" r="49.67"/><rect id="Rectangle_70" data-name="Rectangle 70" x="813.66" y="14.28" width="68.94" height="68.94" transform="translate(213.94 613.99) rotate(-45)"/><circle id="Ellipse_84" data-name="Ellipse 84" class="cls-1" cx="691.16" cy="20.32" r="20.32"/><circle id="Ellipse_85" data-name="Ellipse 85" class="cls-3" cx="848.13" cy="48.74" r="13.06"/><path class="cls-1" d="M128.66,533h0a0,0,0,0,1,0,0V888.23a0,0,0,0,1,0,0H0a0,0,0,0,1,0,0V661.65A128.66,128.66,0,0,1,128.66,533Z"/></g></g></g></svg>